<?xml version="1.0" encoding="UTF-8" standalone="no"?>
<svg
   width="128"
   height="128"
   version="1.1"
   id="svg6"
   sodipodi:docname="icon.svg"
   xml:space="preserve"
   inkscape:version="1.4 (86a8ad7, 2024-10-11)"
   xmlns:inkscape="http://www.inkscape.org/namespaces/inkscape"
   xmlns:sodipodi="http://sodipodi.sourceforge.net/DTD/sodipodi-0.dtd"
   xmlns="http://www.w3.org/2000/svg"
   xmlns:svg="http://www.w3.org/2000/svg"><defs
     id="defs6" /><sodipodi:namedview
     id="namedview6"
     pagecolor="#505050"
     bordercolor="#eeeeee"
     borderopacity="1"
     inkscape:showpageshadow="0"
     inkscape:pageopacity="0"
     inkscape:pagecheckerboard="0"
     inkscape:deskcolor="#505050"
     inkscape:zoom="1.1289063"
     inkscape:cx="46.50519"
     inkscape:cy="64.221453"
     inkscape:window-width="1286"
     inkscape:window-height="745"
     inkscape:window-x="66"
     inkscape:window-y="-8"
     inkscape:window-maximized="1"
     inkscape:current-layer="svg6" /><rect
     width="124"
     height="124"
     x="2"
     y="2"
     fill="#363d52"
     stroke="#212532"
     stroke-width="4"
     rx="14"
     id="rect1"
     style="display:inline;fill:#2b3041;fill-opacity:1;stroke:#14171f;stroke-opacity:1" /><path
     d="m 22.927,95.706632 v 3.867525 q 41.107,41.487993 82.214,0 v -3.867525 z"
     id="path1"
     style="display:inline;fill:#e5e5e5;fill-opacity:1;stroke-width:0.108798" /><path
     fill="#478cbf"
     d="m 22.927,95.89931 15.352,1.640768 c 0.808,0.07813 1.313,0.625054 1.515,1.640768 l 0.404,7.852244 13.332,1.17198 0.808,-7.14906 c 0.134666,-0.85945 0.639666,-1.445438 1.515,-1.757966 h 16.362 c 0.875334,0.312528 1.380334,0.898516 1.515,1.757966 l 0.808,7.14906 13.332,-1.17198 0.404,-7.852244 c 0.202,-1.015714 0.707,-1.562636 1.515,-1.640768 l 15.352,-1.640768 2.81864,-32.432237 c 2.02,-3.047141 1.08669,-8.560347 2.83736,-11.841883 -2.35667,-4.609777 -7.65646,-13.996403 -10.888458,-17.824862 -2.895334,1.562636 -3.150542,8.566241 -5.776542,10.6758 -2.693334,-2.890878 -57.502666,-2.890878 -60.196,0 -2.626,-2.109559 0.09402,-8.799982 -2.801311,-10.362618 -3.232,3.828459 -11.507022,12.901903 -13.863689,17.51168 1.750667,3.281536 0.190995,13.179293 2.210995,16.226434 z m 0,3.867525 7.972318,6.785245 c 24.632739,20.96494 49.18557,22.77265 63.611924,-2.21453 l 10.629758,-4.570715 -13.534,1.406375 -0.505,8.08664 c -0.134666,0.78132 -0.606,1.28918 -1.414,1.52357 l -16.362,1.28918 c -0.808,0 -1.346666,-0.42973 -1.616,-1.28918 L 70.7,103.16557 H 57.368 l -1.01,7.61785 c -0.269334,0.85945 -0.808,1.28918 -1.616,1.28918 L 38.38,110.78342 c -0.808,-0.23439 -1.279334,-0.74225 -1.414,-1.52357 l -0.505,-8.08664 z"
     id="path2"
     sodipodi:nodetypes="ccccccccccccccccccccccccsccccccccccccccc"
     style="display:inline;fill:#36709b;fill-opacity:1;stroke-width:0.108798"
     sodipodi:insensitive="true" /><ellipse
     cx="85.546997"
     cy="72.720779"
     id="circle3"
     style="display:inline;fill:#e5e5e5;fill-opacity:1;stroke-width:0.108798"
     rx="9.0900002"
     ry="10.547795"
     sodipodi:insensitive="true" /><ellipse
     cx="42.521"
     cy="72.720779"
     id="circle4"
     style="display:inline;fill:#e5e5e5;stroke-width:0.108798;fill-opacity:1"
     rx="9.0900002"
     ry="10.547795" /><g
     fill="#414042"
     transform="matrix(0.101,0,0,0.101,12.322,18.2855)"
     id="g6"
     style="display:inline;fill:#303031;fill-opacity:1"><circle
       cx="307"
       cy="532"
       r="60"
       id="circle5"
       style="display:inline;fill:#171717;fill-opacity:1" /><circle
       cx="717"
       cy="532"
       r="60"
       id="circle6"
       style="display:inline;fill:#171717;fill-opacity:1" /></g><path
     style="display:inline;fill:#14171f;fill-opacity:1;stroke-width:0.190744"
     d="m 56.145893,122.59927 c -6.19245,-0.30327 -5.216048,0.15853 -18.301027,-8.656 C 27.426636,106.92514 20.489207,102.04147 19.70387,101.17274 18.085916,99.38299 17.770233,97.972149 17.549003,91.542362 17.329991,85.17704 17.261874,84.885309 14.157361,77.016534 13.666388,75.77211 13.171274,74.029783 12.994295,72.92363 c -0.404485,-2.52807 -0.399605,-7.989494 0.01009,-11.3447 0.284829,-2.332351 0.284829,-3.004527 0,-5.216451 -0.23385,-1.816035 -0.319085,-4.618845 -0.299298,-9.842147 0.107978,-28.499389 5.130751,-31.532018 12.251903,-40.1808081 1.054141,-1.2802657 1.350305,-1.5114478 1.130938,-0.8827807 -0.230942,0.661835 -0.808341,4.3430517 -1.074916,6.8531308 -0.305397,2.875662 -0.155925,-4.6573081 0.229922,-2.026377 0.951324,6.486647 2.169912,6.176002 3.903333,10.050022 0.99296,2.219149 3.280836,5.802504 3.704747,5.802504 0.146281,0 1.124352,-0.372273 2.173491,-0.827275 5.896443,-2.557249 7.626436,-3.166374 11.804906,-4.156481 2.88596,-0.683842 7.079434,-1.332829 10.277005,-1.590487 2.650406,-0.213566 9.229396,-0.213241 11.679889,4.84e-4 6.721059,0.586448 12.880289,2.004354 17.611331,4.054278 1.09473,0.474339 2.75546,1.195039 3.6905,1.601558 0.93506,0.406516 1.90411,0.761274 2.15345,0.788348 0.96934,0.105253 3.83672,-4.775503 5.20447,-8.858878 3.192194,-9.5301887 3.961594,-0.778853 1.812731,-10.2691729 -0.187741,-0.8291202 -0.302751,-1.5348113 -0.255601,-1.5681987 0.280971,-0.1989463 2.525064,2.808196 3.691324,4.9464876 6.06531,11.120455 10.44328,15.367889 10.33144,40.99849 -0.026,5.94406 0.0596,9.156981 0.31224,11.732016 0.27632,2.816238 0.29721,3.972615 0.10147,5.617725 -0.48984,4.11762 -1.60299,8.844086 -3.54981,15.072537 l -0.85287,2.728614 -0.0554,5.37696 c -0.0676,6.556733 -0.35018,7.962478 -1.92734,9.585812 -2.18621,2.25021 -12.074424,9.01221 -27.791291,19.00494 -2.075578,1.31965 -3.389836,1.83504 -5.275875,2.06899 -1.848618,0.2293 -14.150844,0.33716 -17.841278,0.15641 z m 13.344737,-1.75466 c 2.030138,-0.0983 3.151775,-0.23102 3.853528,-0.45582 2.100516,-0.67287 10.948493,-5.99085 14.346208,-8.62264 4.66536,-3.61366 5.49035,-5.16622 5.79966,-10.91442 0.15821,-2.940425 0.28397,-3.788498 0.75167,-5.069608 0.9454,-2.589569 2.32399,-4.76609 4.49712,-7.100095 0.478431,-0.513849 0.869871,-0.960336 0.869871,-0.992216 0,-0.09299 -4.818131,1.087016 -8.387111,2.054175 -7.587353,2.056084 -13.27175,3.84704 -21.807517,6.870762 -3.214148,1.138583 -5.949303,2.07014 -6.078132,2.07014 -0.128824,0 -1.9866,-0.658903 -4.128388,-1.46424 -7.342113,-2.760718 -17.037729,-5.882187 -23.753828,-7.64746 -3.347755,-0.879933 -8.172596,-2.00537 -8.275607,-1.930361 -0.0358,0.02603 0.431084,0.580342 1.037503,1.231728 2.258733,2.426201 3.507233,4.39967 4.429446,7.001476 0.460726,1.299826 0.607282,2.246077 0.770648,4.975699 0.229503,3.83481 0.589629,5.12706 2.01287,7.22278 0.479617,0.70622 1.337629,1.71742 1.906704,2.24709 2.177715,2.02693 7.121378,5.32844 12.40414,8.28379 2.533295,1.41721 3.005959,1.634 4.133036,1.89558 1.740615,0.40397 10.427569,0.59511 15.618179,0.34364 z M 86.801356,76.133047 c 4.44385,-0.660637 8.40787,-3.021618 11.02454,-6.566248 1.09649,-1.485345 1.17746,-1.369752 -1.61739,-2.308819 -1.41963,-0.477006 -1.94314,-0.570163 -3.1735,-0.564721 -2.58865,0.01145 -6.897635,1.044145 -12.445784,2.982759 -3.158439,1.103598 -8.849208,3.35311 -8.85706,3.501111 -0.0083,0.159257 6.150287,2.18572 7.702135,2.534303 3.029339,0.680467 4.904167,0.787757 7.367059,0.421615 z M 44.911199,75.983373 c 0.851639,-0.126857 2.311881,-0.422191 3.244991,-0.656309 1.809355,-0.453975 6.79683,-2.159743 6.79683,-2.32458 0,-0.300521 -9.771661,-3.884902 -13.2607,-4.864217 -4.667218,-1.309995 -7.534473,-1.707305 -9.607357,-1.331286 -1.075948,0.19518 -3.885646,1.048989 -4.291254,1.304026 -0.18687,0.117507 1.650131,2.397726 2.870835,3.563481 2.189028,2.09049 5.352157,3.73977 8.219761,4.285833 1.589557,0.302695 4.085372,0.31224 6.026894,0.0231 z m 25.1909,-3.761833 c 0.212776,-0.09555 0.09165,-0.16513 -0.411411,-0.236369 -0.969631,-0.137312 -1.946532,-0.87045 -2.298114,-1.724661 -0.181838,-0.441798 -0.293645,-1.671998 -0.297723,-3.275616 -0.0069,-2.712648 -0.06981,-2.468889 1.325884,-5.136207 0.261063,-0.498922 -1.434484,0.87873 -1.942039,1.577934 -0.846378,1.16595 -1.325829,2.925906 -1.315199,4.827872 0.01382,2.4393 0.532286,3.378659 2.143494,3.882251 0.769849,0.240617 2.341728,0.288306 2.795108,0.08477 z M 59.02429,71.944393 c 0.528953,-0.149861 1.089932,-0.467609 1.346001,-0.762407 0.980815,-1.129156 1.124866,-3.551011 0.330371,-5.554541 -0.40844,-1.03 -1.258499,-2.268042 -1.759362,-2.562378 -0.285766,-0.167929 -0.262885,-0.02682 0.118733,0.732366 0.610512,1.2145 0.809299,3.656119 0.432883,5.316851 -0.411788,1.816797 -1.051097,2.516205 -2.479367,2.712443 -0.770587,0.105879 -0.783707,0.117939 -0.247095,0.227216 0.900311,0.183347 1.290936,0.164395 2.257843,-0.10955 z m 47.63639,-7.926018 c -0.46974,-3.960243 -1.54225,-7.353896 -3.12052,-9.873988 -0.65896,-1.052161 -0.87932,-1.696831 -1.2203,-3.569716 -0.75384,-4.140653 -1.56786,-6.749642 -3.308724,-10.60471 -1.06522,-2.358889 -1.47316,-2.83737 -1.02222,-1.198965 0.835,3.033774 1.559661,10.991231 1.234791,13.559333 l -0.196911,1.556576 1.102124,1.252283 c 2.55366,2.901612 5.20362,7.449401 6.20401,10.64722 0.53911,1.723259 0.66274,1.05631 0.32775,-1.768033 z M 23.793957,61.279278 c 0.987619,-1.783585 3.116402,-4.785744 4.415914,-6.227628 l 0.918209,-1.018811 0.07121,-6.123727 c 0.04149,-3.56629 0.189457,-6.815301 0.354356,-7.779697 0.155734,-0.910784 0.23071,-1.693109 0.16661,-1.738495 -0.138752,-0.09825 -1.033676,1.954692 -1.835795,4.211258 -0.78101,2.197204 -1.623046,5.665669 -1.964555,8.092272 -0.202735,1.440534 -0.424211,2.208822 -0.786321,2.727655 -1.821539,2.609929 -3.193589,7.039493 -3.604454,11.636715 l -0.1291,1.444556 0.776916,-1.853466 c 0.427306,-1.019399 1.154962,-2.536183 1.617017,-3.370632 z m 51.518492,2.713579 c 2.796877,-1.460442 7.120733,-4.519991 8.587647,-6.076574 1.358412,-1.441454 1.96525,-2.247086 1.692589,-2.247086 -0.18687,0 -4.144036,1.651434 -5.535016,2.309917 -0.717484,0.339657 -0.799667,0.162634 -0.26463,-0.569986 0.407872,-0.558484 0.274873,-0.528072 -1.120144,0.256162 -2.07208,1.164872 -4.230545,3.575727 -5.225791,5.836876 -0.604737,1.373953 -0.678335,1.636908 -0.458108,1.636908 0.07064,0 1.116163,-0.515798 2.323453,-1.146217 z m -21.14532,-0.739736 c -0.428263,-2.500152 -2.180131,-4.888728 -5.094312,-6.94584 -1.761866,-1.243698 -5.114118,-3.045687 -5.665912,-3.045687 -0.122535,0 0.372774,0.631995 1.100699,1.404434 0.727924,0.772439 1.607687,1.756168 1.955034,2.186074 0.561909,0.695453 0.583675,0.771988 0.197403,0.694131 -0.238779,-0.04815 -0.779094,-0.136831 -1.20069,-0.197127 l -0.766541,-0.10964 0.155077,0.6193 c 0.286717,1.145003 1.293961,2.349794 2.947383,3.525474 1.303311,0.926723 2.050153,1.29544 3.982655,1.966208 1.308191,0.454071 2.416507,0.825579 2.462913,0.825579 0.04641,0 0.01327,-0.415301 -0.07371,-0.922906 z"
     id="path1-0"
     sodipodi:nodetypes="cssssscsccssssscsscssssssccscsccsssccsssssssssssscsssscsssssssscsscssssssscccssssscsccsssscssssssssssscsssssccsssscscssscsssssssccsssscscssssc"
     sodipodi:insensitive="true" /></svg>
